<?xml version="1.0" encoding="utf-8"?>
<!-- Generator: Adobe Illustrator 18.1.0, SVG Export Plug-In . SVG Version: 6.00 Build 0)  -->
<svg version="1.1" id="Layer_1" xmlns="http://www.w3.org/2000/svg" xmlns:xlink="http://www.w3.org/1999/xlink" x="0px" y="0px"
	 viewBox="0 0 300 300" enable-background="new 0 0 300 300" xml:space="preserve">
<g>
	<path fill="none" d="M197.6,209.8c-4.9,0-9.9,4.2-10.9,9.2c-0.4,2.2,0,4.3,1.2,5.8c1.2,1.4,3,2.2,5.1,2.2c4.9,0,9.9-4.2,10.9-9.2
		c0.1-0.6,0.2-1.1,0.2-1.6c0-1.6-0.5-3-1.4-4.1C201.6,210.6,199.8,209.8,197.6,209.8z"/>
	<path fill="none" d="M131.8,151.2c1.1-5,1.1-9.9,1.6-20.4c0.5-10.4,4.3-13.9,4.3-13.9s112.5,1.3,124.5,2.7c0.9-2,1.7-3,2.3-4.3
		c-14.5-0.1-116.3-0.3-116.3-0.3s-14.3,0-20.2,0c-1.3,6-7.6,37-9.5,46c1.4,0,4,0,7.4,0c0,0,0-0.2,0-0.2
		C123.8,157.3,130.7,156.1,131.8,151.2z"/>
	<path fill="none" d="M123.9,209.8c-4.9,0-9.9,4.2-10.9,9.2c-0.4,2.2,0,4.3,1.2,5.8c1.2,1.4,3,2.2,5.1,2.2c4.9,0,9.9-4.2,10.9-9.2
		c0.1-0.6,0.2-1.1,0.2-1.6c0-1.6-0.5-3-1.4-4.1C127.8,210.6,126,209.8,123.9,209.8z"/>
	<path fill="#8FCF69" d="M262.2,119.4c-12-1.4-124.5-2.7-124.5-2.7s-3.7,3.5-4.3,14c-0.5,10.4-0.5,15.4-1.6,20.4
		c-1.1,5-8,6.1-5.9,9.6c0,0,0,0.2,0,0.2c22.8,0,82.5,0,87.5,0c1.9-3,8.8-17,13.2-26c-14.2,0-79.9,0-79.9,0c-3,0-5.3-3-5.3-6
		c0-3,2.4-6,5.3-6h88.7c1.9,0,3.6,1.6,4.6,3.2c1,1.6,1,3.9,0.2,5.6l-18.7,36.3c-0.9,1.8-2.7,2.9-4.7,2.9H112c-0.5,0-1.1-0.1-1.6-0.2
		c-4.9,3.1-11.4,9.2-9.3,15.2c27.4,0,124.4,0,129.9,0C233.2,182,253.9,137.1,262.2,119.4z"/>
	<path fill="#305C65" d="M277.3,106.5c-1-1.5-2.7-2.5-4.5-2.5l-124.7-1h-24.6c-2.5,0-4.7,1.8-5.2,4.3L106.7,165
		c-0.3,1.6,0.1,3.2,1.1,4.4c0.7,0.8,1.6,1.2,2.6,1.5c0.5,0.2,1,0.1,1.6,0.1h104.7c2,0,3.8-0.9,4.7-2.7l18.7-36.2
		c0.9-1.7,0.8-4.3-0.2-5.8c-1-1.6-2.7-3.2-4.6-3.2h-88.7c-3,0-5.3,3-5.3,6c0,3,2.4,6,5.3,6c0,0,65.7,0,79.9,0
		c-4.4,9-11.3,23-13.2,26c-5,0-64.7,0-87.5,0c-3.4,0-6,0-7.4,0c1.9-9,8.2-40,9.5-46c5.9,0,20.2,0,20.2,0s101.8,0.2,116.3,0.3
		c-0.6,1.2-1.4,2.4-2.3,4.4c-8.3,17.7-29,62.2-31.1,66.2c-5.6,0-102.6,0-129.9,0c-3.5,0-5.9,0-6.8,0c-1.9-7-24.7-97.2-24.7-97.2
		C69,86.4,66.8,84,64.4,84H22.7c-3,0-5.3,3-5.3,6c0,2.9,2.4,6,5.3,6c0,0,30.8,0,37.5,0c1.9,7,24.7,97.2,24.7,97.2
		c0.6,2.4,2.7,4.8,5.2,4.8h144.3c2.1,0,4-1.7,4.8-3.6l38.4-82.5C278.4,110.2,278.3,108.1,277.3,106.5z"/>
	<path fill="#305C65" d="M123.9,203.4c-8.1,0-15.6,6.3-17.2,14.4c-0.8,4.1,0.1,8.1,2.6,11c2.4,2.9,6,4.5,10.1,4.5
		c8.1,0,15.6-6.3,17.2-14.4c0.8-4.1-0.1-8.1-2.6-11C131.5,205,128,203.4,123.9,203.4z M130.3,217.8c-1,5-5.9,9.2-10.9,9.2
		c-2.1,0-4-0.8-5.1-2.2c-1.2-1.5-1.7-3.5-1.2-5.8c1-5,5.9-9.2,10.9-9.2c2.1,0,4,0.8,5.1,2.2c0.9,1.1,1.4,2.5,1.4,4.1
		C130.4,216.7,130.4,217.2,130.3,217.8z"/>
	<path fill="#305C65" d="M197.6,203.4c-8.1,0-15.6,6.3-17.2,14.4c-0.8,4.1,0.1,8.1,2.6,11.1c2.4,2.9,6.4,4.5,10.4,4.5
		c8.1,0,16.5-6.3,17.5-14.4v0c0-4.1-0.5-8.1-2.9-11C205.6,205,201.7,203.4,197.6,203.4z M204,217.8c-1,5-5.9,9.2-10.9,9.2
		c-2.1,0-4-0.8-5.1-2.2c-1.2-1.5-1.7-3.5-1.2-5.8c1-5,5.9-9.2,10.9-9.2c2.1,0,4,0.8,5.1,2.2c0.9,1.1,1.4,2.5,1.4,4.1
		C204.1,216.7,204.1,217.2,204,217.8z"/>
	<polygon fill="#8FCF69" points="104.5,218 104.9,213.7 83.5,216.2 	"/>
	<polygon fill="#8FCF69" points="101,224.4 101.3,220.2 79.9,222.6 	"/>
	<polygon fill="#8FCF69" points="176.5,219.1 176.8,214.8 155.5,217.3 	"/>
	<polygon fill="#8FCF69" points="172.9,225.5 173.3,221.2 151.9,223.7 	"/>
</g>
</svg>
